<?xml version="1.0" standalone="no"?>
<!DOCTYPE svg PUBLIC "-//W3C//DTD SVG 20010904//EN"
 "http://www.w3.org/TR/2001/REC-SVG-20010904/DTD/svg10.dtd">
<svg version="1.0" xmlns="http://www.w3.org/2000/svg"
 width="1024.000000pt" height="1024.000000pt" viewBox="0 0 1024.000000 1024.000000"
 preserveAspectRatio="xMidYMid meet">
<metadata>
Created by potrace 1.11, written by Peter Selinger 2001-2013
</metadata>
<g transform="translate(0.000000,1024.000000) scale(0.100000,-0.100000)"
fill="#000000" stroke="none">
<path d="M1745 7706 c-48 -22 -155 -116 -335 -297 -85 -85 -110 -139 -110
-238 0 -110 1 -112 546 -660 275 -276 698 -702 940 -946 l442 -445 -417 -419
c-229 -231 -651 -657 -939 -946 -595 -598 -578 -576 -570 -714 7 -115 10 -119
298 -394 121 -115 174 -141 275 -135 45 3 86 13 115 28 32 16 380 358 1245
1224 1117 1117 1202 1205 1218 1252 20 60 22 146 5 195 -6 19 -28 57 -49 84
-21 28 -563 575 -1206 1217 -1055 1054 -1174 1170 -1226 1193 -75 33 -161 33
-232 1z"/>
<path d="M5000 3389 c-70 -7 -113 -30 -172 -88 -72 -72 -81 -117 -80 -382 1
-118 4 -231 7 -250 15 -88 83 -171 174 -212 l46 -21 1875 0 c1546 0 1882 2
1915 13 89 30 162 104 188 192 19 61 20 472 1 542 -22 86 -72 143 -160 184
l-59 27 -1840 1 c-1012 0 -1865 -3 -1895 -6z"/>
</g>
</svg>
